<mxfile host="app.diagrams.net" agent="Mozilla/5.0 (Windows NT 10.0; Win64; x64) AppleWebKit/537.36 (KHTML, like Gecko) Chrome/136.0.0.0 Safari/537.36" version="26.2.14">
  <diagram name="Страница — 1" id="qWmt-0j7AzN8GGAEcTqa">
    <mxGraphModel dx="1148" dy="546" grid="1" gridSize="10" guides="1" tooltips="1" connect="1" arrows="1" fold="1" page="1" pageScale="1" pageWidth="827" pageHeight="1169" math="0" shadow="0">
      <root>
        <mxCell id="0" />
        <mxCell id="1" parent="0" />
        <mxCell id="HM6oL9ZmOvFtEMd_MzmD-1" value="" style="endArrow=none;html=1;rounded=0;entryX=0.012;entryY=0.392;entryDx=0;entryDy=0;entryPerimeter=0;" parent="1" target="udKlv2XS0zDgbgj1gm9A-9" edge="1">
          <mxGeometry width="50" height="50" relative="1" as="geometry">
            <mxPoint x="120" y="200" as="sourcePoint" />
            <mxPoint x="200" y="210" as="targetPoint" />
            <Array as="points">
              <mxPoint x="160" y="200" />
              <mxPoint x="160" y="210" />
            </Array>
          </mxGeometry>
        </mxCell>
        <mxCell id="HM6oL9ZmOvFtEMd_MzmD-2" value="" style="endArrow=none;html=1;rounded=0;entryX=0.076;entryY=0.8;entryDx=0;entryDy=0;entryPerimeter=0;" parent="1" target="udKlv2XS0zDgbgj1gm9A-9" edge="1">
          <mxGeometry width="50" height="50" relative="1" as="geometry">
            <mxPoint x="120" y="240" as="sourcePoint" />
            <mxPoint x="200" y="230" as="targetPoint" />
            <Array as="points">
              <mxPoint x="160" y="240" />
              <mxPoint x="160" y="230" />
            </Array>
          </mxGeometry>
        </mxCell>
        <mxCell id="HM6oL9ZmOvFtEMd_MzmD-3" value="" style="endArrow=none;html=1;rounded=0;entryX=0;entryY=0.5;entryDx=0;entryDy=0;" parent="1" target="udKlv2XS0zDgbgj1gm9A-3" edge="1">
          <mxGeometry width="50" height="50" relative="1" as="geometry">
            <mxPoint x="120" y="310" as="sourcePoint" />
            <mxPoint x="200" y="310.0000000000001" as="targetPoint" />
          </mxGeometry>
        </mxCell>
        <mxCell id="HM6oL9ZmOvFtEMd_MzmD-4" value="" style="endArrow=none;html=1;rounded=0;entryX=0.012;entryY=0.432;entryDx=0;entryDy=0;exitX=1.041;exitY=0.947;exitDx=0;exitDy=0;exitPerimeter=0;entryPerimeter=0;" parent="1" source="udKlv2XS0zDgbgj1gm9A-2" target="udKlv2XS0zDgbgj1gm9A-10" edge="1">
          <mxGeometry width="50" height="50" relative="1" as="geometry">
            <mxPoint x="140" y="420" as="sourcePoint" />
            <mxPoint x="200" y="420" as="targetPoint" />
          </mxGeometry>
        </mxCell>
        <mxCell id="HM6oL9ZmOvFtEMd_MzmD-6" value="b" style="text;html=1;align=center;verticalAlign=middle;resizable=0;points=[];autosize=1;strokeColor=none;fillColor=none;" parent="1" vertex="1">
          <mxGeometry x="20" y="218" width="30" height="30" as="geometry" />
        </mxCell>
        <mxCell id="HM6oL9ZmOvFtEMd_MzmD-10" value="a" style="text;html=1;align=center;verticalAlign=middle;resizable=0;points=[];autosize=1;strokeColor=none;fillColor=none;" parent="1" vertex="1">
          <mxGeometry x="20" y="180" width="30" height="30" as="geometry" />
        </mxCell>
        <mxCell id="HM6oL9ZmOvFtEMd_MzmD-17" value="" style="endArrow=none;html=1;rounded=0;entryX=0;entryY=0.5;entryDx=0;entryDy=0;exitX=1;exitY=0.5;exitDx=0;exitDy=0;" parent="1" source="udKlv2XS0zDgbgj1gm9A-12" target="udKlv2XS0zDgbgj1gm9A-11" edge="1">
          <mxGeometry width="50" height="50" relative="1" as="geometry">
            <mxPoint x="225" y="300" as="sourcePoint" />
            <mxPoint x="255" y="300" as="targetPoint" />
          </mxGeometry>
        </mxCell>
        <mxCell id="HM6oL9ZmOvFtEMd_MzmD-19" value="" style="endArrow=none;html=1;rounded=0;exitX=1;exitY=0.5;exitDx=0;exitDy=0;entryX=0.047;entryY=0.7;entryDx=0;entryDy=0;entryPerimeter=0;" parent="1" source="udKlv2XS0zDgbgj1gm9A-11" target="udKlv2XS0zDgbgj1gm9A-13" edge="1">
          <mxGeometry width="50" height="50" relative="1" as="geometry">
            <mxPoint x="320" y="310" as="sourcePoint" />
            <mxPoint x="374" y="270" as="targetPoint" />
            <Array as="points">
              <mxPoint x="330" y="310" />
              <mxPoint x="340" y="310" />
              <mxPoint x="340" y="270" />
            </Array>
          </mxGeometry>
        </mxCell>
        <mxCell id="HM6oL9ZmOvFtEMd_MzmD-22" value="" style="endArrow=none;html=1;rounded=0;exitX=0.996;exitY=0.6;exitDx=0;exitDy=0;entryX=0.02;entryY=0.307;entryDx=0;entryDy=0;exitPerimeter=0;entryPerimeter=0;" parent="1" source="udKlv2XS0zDgbgj1gm9A-9" target="udKlv2XS0zDgbgj1gm9A-13" edge="1">
          <mxGeometry width="50" height="50" relative="1" as="geometry">
            <mxPoint x="240" y="220" as="sourcePoint" />
            <mxPoint x="374" y="250" as="targetPoint" />
            <Array as="points">
              <mxPoint x="340" y="220" />
              <mxPoint x="340" y="250" />
              <mxPoint x="360" y="250" />
            </Array>
          </mxGeometry>
        </mxCell>
        <mxCell id="HM6oL9ZmOvFtEMd_MzmD-31" value="" style="endArrow=none;html=1;rounded=0;entryX=1;entryY=0.5;entryDx=0;entryDy=0;exitX=0;exitY=0.5;exitDx=0;exitDy=0;" parent="1" source="udKlv2XS0zDgbgj1gm9A-23" target="udKlv2XS0zDgbgj1gm9A-15" edge="1">
          <mxGeometry width="50" height="50" relative="1" as="geometry">
            <mxPoint x="940" y="340" as="sourcePoint" />
            <mxPoint x="762" y="340" as="targetPoint" />
          </mxGeometry>
        </mxCell>
        <mxCell id="HM6oL9ZmOvFtEMd_MzmD-32" value="q" style="text;html=1;align=center;verticalAlign=middle;resizable=0;points=[];autosize=1;strokeColor=none;fillColor=none;" parent="1" vertex="1">
          <mxGeometry x="990" y="318" width="30" height="30" as="geometry" />
        </mxCell>
        <mxCell id="HM6oL9ZmOvFtEMd_MzmD-46" value="d" style="text;html=1;align=center;verticalAlign=middle;resizable=0;points=[];autosize=1;strokeColor=none;fillColor=none;" parent="1" vertex="1">
          <mxGeometry x="20" y="368" width="30" height="30" as="geometry" />
        </mxCell>
        <mxCell id="HM6oL9ZmOvFtEMd_MzmD-48" value="c" style="text;html=1;align=center;verticalAlign=middle;resizable=0;points=[];autosize=1;strokeColor=none;fillColor=none;" parent="1" vertex="1">
          <mxGeometry x="20" y="288" width="30" height="30" as="geometry" />
        </mxCell>
        <mxCell id="udKlv2XS0zDgbgj1gm9A-2" value="D" style="whiteSpace=wrap;html=1;" parent="1" vertex="1">
          <mxGeometry x="80" y="180" width="40" height="253" as="geometry" />
        </mxCell>
        <mxCell id="udKlv2XS0zDgbgj1gm9A-3" value="*3" style="ellipse;whiteSpace=wrap;html=1;aspect=fixed;" parent="1" vertex="1">
          <mxGeometry x="175" y="285" width="50" height="50" as="geometry" />
        </mxCell>
        <mxCell id="udKlv2XS0zDgbgj1gm9A-4" value="" style="endArrow=none;html=1;rounded=0;entryX=-0.028;entryY=0.936;entryDx=0;entryDy=0;entryPerimeter=0;" parent="1" edge="1">
          <mxGeometry width="50" height="50" relative="1" as="geometry">
            <mxPoint x="20" y="387" as="sourcePoint" />
            <mxPoint x="78.88" y="386.808" as="targetPoint" />
            <Array as="points">
              <mxPoint x="30" y="387" />
            </Array>
          </mxGeometry>
        </mxCell>
        <mxCell id="udKlv2XS0zDgbgj1gm9A-5" value="" style="endArrow=none;html=1;rounded=0;exitX=-0.091;exitY=0.724;exitDx=0;exitDy=0;exitPerimeter=0;entryX=-0.019;entryY=0.513;entryDx=0;entryDy=0;entryPerimeter=0;" parent="1" source="HM6oL9ZmOvFtEMd_MzmD-48" target="udKlv2XS0zDgbgj1gm9A-2" edge="1">
          <mxGeometry width="50" height="50" relative="1" as="geometry">
            <mxPoint x="160" y="330" as="sourcePoint" />
            <mxPoint x="210" y="280" as="targetPoint" />
          </mxGeometry>
        </mxCell>
        <mxCell id="udKlv2XS0zDgbgj1gm9A-7" value="" style="endArrow=none;html=1;rounded=0;entryX=-0.026;entryY=0.232;entryDx=0;entryDy=0;entryPerimeter=0;exitX=-0.026;exitY=0.696;exitDx=0;exitDy=0;exitPerimeter=0;" parent="1" source="HM6oL9ZmOvFtEMd_MzmD-6" target="udKlv2XS0zDgbgj1gm9A-2" edge="1">
          <mxGeometry width="50" height="50" relative="1" as="geometry">
            <mxPoint x="90" y="310" as="sourcePoint" />
            <mxPoint x="140" y="260" as="targetPoint" />
          </mxGeometry>
        </mxCell>
        <mxCell id="udKlv2XS0zDgbgj1gm9A-8" value="" style="endArrow=none;html=1;rounded=0;exitX=-0.054;exitY=0.676;exitDx=0;exitDy=0;exitPerimeter=0;entryX=-0.026;entryY=0.078;entryDx=0;entryDy=0;entryPerimeter=0;" parent="1" source="HM6oL9ZmOvFtEMd_MzmD-10" target="udKlv2XS0zDgbgj1gm9A-2" edge="1">
          <mxGeometry width="50" height="50" relative="1" as="geometry">
            <mxPoint x="90" y="310" as="sourcePoint" />
            <mxPoint x="140" y="260" as="targetPoint" />
          </mxGeometry>
        </mxCell>
        <mxCell id="udKlv2XS0zDgbgj1gm9A-9" value="-" style="ellipse;whiteSpace=wrap;html=1;aspect=fixed;" parent="1" vertex="1">
          <mxGeometry x="170" y="190" width="50" height="50" as="geometry" />
        </mxCell>
        <mxCell id="udKlv2XS0zDgbgj1gm9A-10" value="*4" style="ellipse;whiteSpace=wrap;html=1;aspect=fixed;" parent="1" vertex="1">
          <mxGeometry x="480" y="398" width="50" height="50" as="geometry" />
        </mxCell>
        <mxCell id="udKlv2XS0zDgbgj1gm9A-11" value="+1" style="ellipse;whiteSpace=wrap;html=1;aspect=fixed;" parent="1" vertex="1">
          <mxGeometry x="245" y="285" width="50" height="50" as="geometry" />
        </mxCell>
        <mxCell id="udKlv2XS0zDgbgj1gm9A-12" value="*3" style="ellipse;whiteSpace=wrap;html=1;aspect=fixed;" parent="1" vertex="1">
          <mxGeometry x="175" y="285" width="50" height="50" as="geometry" />
        </mxCell>
        <mxCell id="udKlv2XS0zDgbgj1gm9A-13" value="*" style="ellipse;whiteSpace=wrap;html=1;aspect=fixed;" parent="1" vertex="1">
          <mxGeometry x="360" y="235" width="50" height="50" as="geometry" />
        </mxCell>
        <mxCell id="udKlv2XS0zDgbgj1gm9A-14" value="-" style="ellipse;whiteSpace=wrap;html=1;aspect=fixed;" parent="1" vertex="1">
          <mxGeometry x="560" y="315" width="50" height="50" as="geometry" />
        </mxCell>
        <mxCell id="udKlv2XS0zDgbgj1gm9A-15" value="&amp;gt;&amp;gt;&amp;gt;1" style="ellipse;whiteSpace=wrap;html=1;aspect=fixed;" parent="1" vertex="1">
          <mxGeometry x="777" y="315" width="50" height="50" as="geometry" />
        </mxCell>
        <mxCell id="udKlv2XS0zDgbgj1gm9A-16" value="D" style="whiteSpace=wrap;html=1;" parent="1" vertex="1">
          <mxGeometry x="450" y="225.25" width="40" height="69.5" as="geometry" />
        </mxCell>
        <mxCell id="udKlv2XS0zDgbgj1gm9A-17" value="" style="endArrow=none;html=1;rounded=0;exitX=1;exitY=0.5;exitDx=0;exitDy=0;entryX=0;entryY=0.5;entryDx=0;entryDy=0;" parent="1" source="udKlv2XS0zDgbgj1gm9A-13" target="udKlv2XS0zDgbgj1gm9A-16" edge="1">
          <mxGeometry width="50" height="50" relative="1" as="geometry">
            <mxPoint x="390" y="340" as="sourcePoint" />
            <mxPoint x="440" y="290" as="targetPoint" />
          </mxGeometry>
        </mxCell>
        <mxCell id="udKlv2XS0zDgbgj1gm9A-18" value="" style="endArrow=none;html=1;rounded=0;exitX=1;exitY=0.5;exitDx=0;exitDy=0;entryX=0;entryY=0.5;entryDx=0;entryDy=0;" parent="1" source="udKlv2XS0zDgbgj1gm9A-16" target="udKlv2XS0zDgbgj1gm9A-14" edge="1">
          <mxGeometry width="50" height="50" relative="1" as="geometry">
            <mxPoint x="560" y="360" as="sourcePoint" />
            <mxPoint x="610" y="310" as="targetPoint" />
            <Array as="points">
              <mxPoint x="540" y="260" />
              <mxPoint x="540" y="340" />
            </Array>
          </mxGeometry>
        </mxCell>
        <mxCell id="udKlv2XS0zDgbgj1gm9A-19" value="" style="endArrow=none;html=1;rounded=0;exitX=1;exitY=0.5;exitDx=0;exitDy=0;entryX=0.024;entryY=0.705;entryDx=0;entryDy=0;entryPerimeter=0;" parent="1" source="udKlv2XS0zDgbgj1gm9A-10" target="udKlv2XS0zDgbgj1gm9A-14" edge="1">
          <mxGeometry width="50" height="50" relative="1" as="geometry">
            <mxPoint x="560" y="360" as="sourcePoint" />
            <mxPoint x="540" y="350" as="targetPoint" />
            <Array as="points">
              <mxPoint x="540" y="423" />
              <mxPoint x="540" y="350" />
            </Array>
          </mxGeometry>
        </mxCell>
        <mxCell id="udKlv2XS0zDgbgj1gm9A-20" value="D" style="whiteSpace=wrap;html=1;" parent="1" vertex="1">
          <mxGeometry x="640" y="305.25" width="40" height="69.5" as="geometry" />
        </mxCell>
        <mxCell id="udKlv2XS0zDgbgj1gm9A-21" value="" style="endArrow=none;html=1;rounded=0;exitX=1;exitY=0.5;exitDx=0;exitDy=0;entryX=0;entryY=0.5;entryDx=0;entryDy=0;" parent="1" source="udKlv2XS0zDgbgj1gm9A-14" target="udKlv2XS0zDgbgj1gm9A-20" edge="1">
          <mxGeometry width="50" height="50" relative="1" as="geometry">
            <mxPoint x="620" y="380" as="sourcePoint" />
            <mxPoint x="670" y="330" as="targetPoint" />
          </mxGeometry>
        </mxCell>
        <mxCell id="udKlv2XS0zDgbgj1gm9A-22" value="" style="endArrow=none;html=1;rounded=0;exitX=1;exitY=0.5;exitDx=0;exitDy=0;entryX=0;entryY=0.5;entryDx=0;entryDy=0;" parent="1" source="udKlv2XS0zDgbgj1gm9A-20" target="udKlv2XS0zDgbgj1gm9A-15" edge="1">
          <mxGeometry width="50" height="50" relative="1" as="geometry">
            <mxPoint x="620" y="380" as="sourcePoint" />
            <mxPoint x="670" y="330" as="targetPoint" />
          </mxGeometry>
        </mxCell>
        <mxCell id="udKlv2XS0zDgbgj1gm9A-24" value="" style="endArrow=none;html=1;rounded=0;entryX=1;entryY=0.5;entryDx=0;entryDy=0;" parent="1" target="udKlv2XS0zDgbgj1gm9A-23" edge="1">
          <mxGeometry width="50" height="50" relative="1" as="geometry">
            <mxPoint x="1020" y="340" as="sourcePoint" />
            <mxPoint x="762" y="340" as="targetPoint" />
          </mxGeometry>
        </mxCell>
        <mxCell id="udKlv2XS0zDgbgj1gm9A-23" value="D" style="whiteSpace=wrap;html=1;" parent="1" vertex="1">
          <mxGeometry x="860" y="305.25" width="40" height="69.5" as="geometry" />
        </mxCell>
        <mxCell id="udKlv2XS0zDgbgj1gm9A-25" value="stage1_result" style="text;html=1;align=center;verticalAlign=middle;resizable=0;points=[];autosize=1;strokeColor=none;fillColor=none;" parent="1" vertex="1">
          <mxGeometry x="480" y="235" width="100" height="30" as="geometry" />
        </mxCell>
        <mxCell id="udKlv2XS0zDgbgj1gm9A-26" value="stage2_result" style="text;html=1;align=center;verticalAlign=middle;resizable=0;points=[];autosize=1;strokeColor=none;fillColor=none;" parent="1" vertex="1">
          <mxGeometry x="670" y="315" width="100" height="30" as="geometry" />
        </mxCell>
        <mxCell id="udKlv2XS0zDgbgj1gm9A-27" value="q_reg" style="text;html=1;align=center;verticalAlign=middle;resizable=0;points=[];autosize=1;strokeColor=none;fillColor=none;" parent="1" vertex="1">
          <mxGeometry x="895" y="318" width="50" height="30" as="geometry" />
        </mxCell>
        <mxCell id="udKlv2XS0zDgbgj1gm9A-28" value="" style="endArrow=none;html=1;rounded=0;exitX=-0.054;exitY=0.676;exitDx=0;exitDy=0;exitPerimeter=0;entryX=0.5;entryY=0;entryDx=0;entryDy=0;" parent="1" target="udKlv2XS0zDgbgj1gm9A-2" edge="1">
          <mxGeometry width="50" height="50" relative="1" as="geometry">
            <mxPoint x="19" y="140" as="sourcePoint" />
            <mxPoint x="80" y="140" as="targetPoint" />
            <Array as="points">
              <mxPoint x="100" y="140" />
            </Array>
          </mxGeometry>
        </mxCell>
        <mxCell id="udKlv2XS0zDgbgj1gm9A-29" value="clk" style="text;html=1;align=center;verticalAlign=middle;resizable=0;points=[];autosize=1;strokeColor=none;fillColor=none;" parent="1" vertex="1">
          <mxGeometry x="10" y="118" width="40" height="30" as="geometry" />
        </mxCell>
        <mxCell id="udKlv2XS0zDgbgj1gm9A-30" value="" style="endArrow=none;html=1;rounded=0;entryX=0.5;entryY=0;entryDx=0;entryDy=0;" parent="1" source="udKlv2XS0zDgbgj1gm9A-33" target="udKlv2XS0zDgbgj1gm9A-16" edge="1">
          <mxGeometry width="50" height="50" relative="1" as="geometry">
            <mxPoint x="100" y="140" as="sourcePoint" />
            <mxPoint x="480" y="200" as="targetPoint" />
            <Array as="points">
              <mxPoint x="470" y="140" />
            </Array>
          </mxGeometry>
        </mxCell>
        <mxCell id="udKlv2XS0zDgbgj1gm9A-31" value="" style="endArrow=none;html=1;rounded=0;entryX=0.5;entryY=0;entryDx=0;entryDy=0;" parent="1" source="udKlv2XS0zDgbgj1gm9A-38" target="udKlv2XS0zDgbgj1gm9A-20" edge="1">
          <mxGeometry width="50" height="50" relative="1" as="geometry">
            <mxPoint x="470" y="140" as="sourcePoint" />
            <mxPoint x="680" y="140" as="targetPoint" />
            <Array as="points">
              <mxPoint x="660" y="140" />
            </Array>
          </mxGeometry>
        </mxCell>
        <mxCell id="udKlv2XS0zDgbgj1gm9A-32" value="" style="endArrow=none;html=1;rounded=0;entryX=0.5;entryY=0;entryDx=0;entryDy=0;" parent="1" source="udKlv2XS0zDgbgj1gm9A-40" target="udKlv2XS0zDgbgj1gm9A-23" edge="1">
          <mxGeometry width="50" height="50" relative="1" as="geometry">
            <mxPoint x="660" y="140" as="sourcePoint" />
            <mxPoint x="830" y="320" as="targetPoint" />
            <Array as="points">
              <mxPoint x="880" y="140" />
            </Array>
          </mxGeometry>
        </mxCell>
        <mxCell id="udKlv2XS0zDgbgj1gm9A-36" value="" style="shape=waypoint;sketch=0;fillStyle=solid;size=6;pointerEvents=1;points=[];fillColor=none;resizable=0;rotatable=0;perimeter=centerPerimeter;snapToPoint=1;" parent="1" vertex="1">
          <mxGeometry x="90" y="130" width="20" height="20" as="geometry" />
        </mxCell>
        <mxCell id="udKlv2XS0zDgbgj1gm9A-37" value="" style="endArrow=none;html=1;rounded=0;entryDx=0;entryDy=0;" parent="1" target="udKlv2XS0zDgbgj1gm9A-33" edge="1">
          <mxGeometry width="50" height="50" relative="1" as="geometry">
            <mxPoint x="100" y="140" as="sourcePoint" />
            <mxPoint x="470" y="225" as="targetPoint" />
            <Array as="points" />
          </mxGeometry>
        </mxCell>
        <mxCell id="udKlv2XS0zDgbgj1gm9A-33" value="" style="shape=waypoint;sketch=0;fillStyle=solid;size=6;pointerEvents=1;points=[];fillColor=none;resizable=0;rotatable=0;perimeter=centerPerimeter;snapToPoint=1;" parent="1" vertex="1">
          <mxGeometry x="460" y="130" width="20" height="20" as="geometry" />
        </mxCell>
        <mxCell id="udKlv2XS0zDgbgj1gm9A-39" value="" style="endArrow=none;html=1;rounded=0;entryDx=0;entryDy=0;" parent="1" target="udKlv2XS0zDgbgj1gm9A-38" edge="1">
          <mxGeometry width="50" height="50" relative="1" as="geometry">
            <mxPoint x="470" y="140" as="sourcePoint" />
            <mxPoint x="660" y="305" as="targetPoint" />
            <Array as="points" />
          </mxGeometry>
        </mxCell>
        <mxCell id="udKlv2XS0zDgbgj1gm9A-38" value="" style="shape=waypoint;sketch=0;fillStyle=solid;size=6;pointerEvents=1;points=[];fillColor=none;resizable=0;rotatable=0;perimeter=centerPerimeter;snapToPoint=1;" parent="1" vertex="1">
          <mxGeometry x="650" y="130" width="20" height="20" as="geometry" />
        </mxCell>
        <mxCell id="udKlv2XS0zDgbgj1gm9A-41" value="" style="endArrow=none;html=1;rounded=0;entryDx=0;entryDy=0;" parent="1" target="udKlv2XS0zDgbgj1gm9A-40" edge="1">
          <mxGeometry width="50" height="50" relative="1" as="geometry">
            <mxPoint x="660" y="140" as="sourcePoint" />
            <mxPoint x="880" y="305" as="targetPoint" />
            <Array as="points" />
          </mxGeometry>
        </mxCell>
        <mxCell id="udKlv2XS0zDgbgj1gm9A-40" value="" style="shape=waypoint;sketch=0;fillStyle=solid;size=6;pointerEvents=1;points=[];fillColor=none;resizable=0;rotatable=0;perimeter=centerPerimeter;snapToPoint=1;" parent="1" vertex="1">
          <mxGeometry x="870" y="130" width="20" height="20" as="geometry" />
        </mxCell>
        <mxCell id="udKlv2XS0zDgbgj1gm9A-43" value="" style="endArrow=none;html=1;rounded=0;entryX=0.5;entryY=1;entryDx=0;entryDy=0;" parent="1" target="udKlv2XS0zDgbgj1gm9A-2" edge="1">
          <mxGeometry width="50" height="50" relative="1" as="geometry">
            <mxPoint x="20" y="520" as="sourcePoint" />
            <mxPoint x="80" y="520" as="targetPoint" />
            <Array as="points">
              <mxPoint x="100" y="520" />
            </Array>
          </mxGeometry>
        </mxCell>
        <mxCell id="udKlv2XS0zDgbgj1gm9A-45" value="reset" style="text;html=1;align=center;verticalAlign=middle;resizable=0;points=[];autosize=1;strokeColor=none;fillColor=none;" parent="1" vertex="1">
          <mxGeometry x="5" y="498" width="50" height="30" as="geometry" />
        </mxCell>
        <mxCell id="udKlv2XS0zDgbgj1gm9A-46" value="" style="endArrow=none;html=1;rounded=0;entryX=0.5;entryY=1;entryDx=0;entryDy=0;" parent="1" source="udKlv2XS0zDgbgj1gm9A-50" target="udKlv2XS0zDgbgj1gm9A-16" edge="1">
          <mxGeometry width="50" height="50" relative="1" as="geometry">
            <mxPoint x="100" y="520" as="sourcePoint" />
            <mxPoint x="400" y="470" as="targetPoint" />
            <Array as="points">
              <mxPoint x="470" y="520" />
            </Array>
          </mxGeometry>
        </mxCell>
        <mxCell id="udKlv2XS0zDgbgj1gm9A-48" value="" style="shape=waypoint;sketch=0;fillStyle=solid;size=6;pointerEvents=1;points=[];fillColor=none;resizable=0;rotatable=0;perimeter=centerPerimeter;snapToPoint=1;" parent="1" vertex="1">
          <mxGeometry x="90" y="510" width="20" height="20" as="geometry" />
        </mxCell>
        <mxCell id="udKlv2XS0zDgbgj1gm9A-51" value="" style="endArrow=none;html=1;rounded=0;entryDx=0;entryDy=0;" parent="1" target="udKlv2XS0zDgbgj1gm9A-50" edge="1">
          <mxGeometry width="50" height="50" relative="1" as="geometry">
            <mxPoint x="100" y="520" as="sourcePoint" />
            <mxPoint x="470" y="295" as="targetPoint" />
            <Array as="points" />
          </mxGeometry>
        </mxCell>
        <mxCell id="udKlv2XS0zDgbgj1gm9A-50" value="" style="shape=waypoint;sketch=0;fillStyle=solid;size=6;pointerEvents=1;points=[];fillColor=none;resizable=0;rotatable=0;perimeter=centerPerimeter;snapToPoint=1;" parent="1" vertex="1">
          <mxGeometry x="460" y="510" width="20" height="20" as="geometry" />
        </mxCell>
        <mxCell id="udKlv2XS0zDgbgj1gm9A-52" value="" style="endArrow=none;html=1;rounded=0;exitX=0.649;exitY=0.668;exitDx=0;exitDy=0;exitPerimeter=0;entryX=0.5;entryY=1;entryDx=0;entryDy=0;" parent="1" source="udKlv2XS0zDgbgj1gm9A-50" target="udKlv2XS0zDgbgj1gm9A-20" edge="1">
          <mxGeometry width="50" height="50" relative="1" as="geometry">
            <mxPoint x="590" y="480" as="sourcePoint" />
            <mxPoint x="640" y="430" as="targetPoint" />
            <Array as="points">
              <mxPoint x="660" y="520" />
            </Array>
          </mxGeometry>
        </mxCell>
        <mxCell id="udKlv2XS0zDgbgj1gm9A-53" value="" style="shape=waypoint;sketch=0;fillStyle=solid;size=6;pointerEvents=1;points=[];fillColor=none;resizable=0;rotatable=0;perimeter=centerPerimeter;snapToPoint=1;" parent="1" vertex="1">
          <mxGeometry x="650" y="510" width="20" height="20" as="geometry" />
        </mxCell>
        <mxCell id="udKlv2XS0zDgbgj1gm9A-54" value="" style="endArrow=none;html=1;rounded=0;entryX=0.5;entryY=1;entryDx=0;entryDy=0;" parent="1" source="udKlv2XS0zDgbgj1gm9A-53" target="udKlv2XS0zDgbgj1gm9A-23" edge="1">
          <mxGeometry width="50" height="50" relative="1" as="geometry">
            <mxPoint x="750" y="440" as="sourcePoint" />
            <mxPoint x="800" y="390" as="targetPoint" />
            <Array as="points">
              <mxPoint x="880" y="520" />
            </Array>
          </mxGeometry>
        </mxCell>
        <mxCell id="udKlv2XS0zDgbgj1gm9A-56" value="" style="endArrow=none;html=1;rounded=0;entryX=0;entryY=0.5;entryDx=0;entryDy=0;" parent="1" target="udKlv2XS0zDgbgj1gm9A-58" edge="1">
          <mxGeometry width="50" height="50" relative="1" as="geometry">
            <mxPoint x="20" y="604" as="sourcePoint" />
            <mxPoint x="100" y="600" as="targetPoint" />
          </mxGeometry>
        </mxCell>
        <mxCell id="udKlv2XS0zDgbgj1gm9A-57" value="valid_i" style="text;strokeColor=none;align=center;fillColor=none;html=1;verticalAlign=middle;whiteSpace=wrap;rounded=0;" parent="1" vertex="1">
          <mxGeometry x="5" y="580" width="60" height="30" as="geometry" />
        </mxCell>
        <mxCell id="udKlv2XS0zDgbgj1gm9A-58" value="D" style="whiteSpace=wrap;html=1;" parent="1" vertex="1">
          <mxGeometry x="80" y="569" width="40" height="69.5" as="geometry" />
        </mxCell>
        <mxCell id="udKlv2XS0zDgbgj1gm9A-59" value="D" style="whiteSpace=wrap;html=1;" parent="1" vertex="1">
          <mxGeometry x="450" y="569" width="40" height="69.5" as="geometry" />
        </mxCell>
        <mxCell id="udKlv2XS0zDgbgj1gm9A-60" value="D" style="whiteSpace=wrap;html=1;" parent="1" vertex="1">
          <mxGeometry x="640" y="569" width="40" height="69.5" as="geometry" />
        </mxCell>
        <mxCell id="udKlv2XS0zDgbgj1gm9A-61" value="D" style="whiteSpace=wrap;html=1;" parent="1" vertex="1">
          <mxGeometry x="860" y="569" width="40" height="69.5" as="geometry" />
        </mxCell>
        <mxCell id="udKlv2XS0zDgbgj1gm9A-62" value="" style="endArrow=none;html=1;rounded=0;exitX=1;exitY=0.5;exitDx=0;exitDy=0;entryX=0;entryY=0.5;entryDx=0;entryDy=0;" parent="1" source="udKlv2XS0zDgbgj1gm9A-58" target="udKlv2XS0zDgbgj1gm9A-59" edge="1">
          <mxGeometry width="50" height="50" relative="1" as="geometry">
            <mxPoint x="370" y="510" as="sourcePoint" />
            <mxPoint x="420" y="460" as="targetPoint" />
          </mxGeometry>
        </mxCell>
        <mxCell id="udKlv2XS0zDgbgj1gm9A-63" value="" style="endArrow=none;html=1;rounded=0;exitX=1;exitY=0.5;exitDx=0;exitDy=0;entryX=0;entryY=0.5;entryDx=0;entryDy=0;" parent="1" source="udKlv2XS0zDgbgj1gm9A-59" target="udKlv2XS0zDgbgj1gm9A-60" edge="1">
          <mxGeometry width="50" height="50" relative="1" as="geometry">
            <mxPoint x="570" y="560" as="sourcePoint" />
            <mxPoint x="620" y="510" as="targetPoint" />
          </mxGeometry>
        </mxCell>
        <mxCell id="udKlv2XS0zDgbgj1gm9A-64" value="" style="endArrow=none;html=1;rounded=0;exitX=1;exitY=0.5;exitDx=0;exitDy=0;entryX=0;entryY=0.5;entryDx=0;entryDy=0;" parent="1" source="udKlv2XS0zDgbgj1gm9A-60" target="udKlv2XS0zDgbgj1gm9A-61" edge="1">
          <mxGeometry width="50" height="50" relative="1" as="geometry">
            <mxPoint x="570" y="560" as="sourcePoint" />
            <mxPoint x="620" y="510" as="targetPoint" />
          </mxGeometry>
        </mxCell>
        <mxCell id="udKlv2XS0zDgbgj1gm9A-65" value="" style="endArrow=none;html=1;rounded=0;exitX=1;exitY=0.5;exitDx=0;exitDy=0;" parent="1" source="udKlv2XS0zDgbgj1gm9A-61" edge="1">
          <mxGeometry width="50" height="50" relative="1" as="geometry">
            <mxPoint x="860" y="570" as="sourcePoint" />
            <mxPoint x="1020" y="604" as="targetPoint" />
          </mxGeometry>
        </mxCell>
        <mxCell id="udKlv2XS0zDgbgj1gm9A-66" value="valid_o" style="text;html=1;align=center;verticalAlign=middle;resizable=0;points=[];autosize=1;strokeColor=none;fillColor=none;" parent="1" vertex="1">
          <mxGeometry x="970" y="578" width="60" height="30" as="geometry" />
        </mxCell>
        <mxCell id="udKlv2XS0zDgbgj1gm9A-67" value="valid_in" style="text;html=1;align=center;verticalAlign=middle;resizable=0;points=[];autosize=1;strokeColor=none;fillColor=none;" parent="1" vertex="1">
          <mxGeometry x="120" y="578" width="60" height="30" as="geometry" />
        </mxCell>
        <mxCell id="udKlv2XS0zDgbgj1gm9A-68" value="valid_stage1" style="text;html=1;align=center;verticalAlign=middle;resizable=0;points=[];autosize=1;strokeColor=none;fillColor=none;" parent="1" vertex="1">
          <mxGeometry x="485" y="578" width="90" height="30" as="geometry" />
        </mxCell>
        <mxCell id="udKlv2XS0zDgbgj1gm9A-69" value="valid_stage2" style="text;html=1;align=center;verticalAlign=middle;resizable=0;points=[];autosize=1;strokeColor=none;fillColor=none;" parent="1" vertex="1">
          <mxGeometry x="675" y="578" width="90" height="30" as="geometry" />
        </mxCell>
        <mxCell id="udKlv2XS0zDgbgj1gm9A-70" value="" style="endArrow=none;html=1;rounded=0;exitX=0.999;exitY=0.091;exitDx=0;exitDy=0;exitPerimeter=0;entryX=0;entryY=0.898;entryDx=0;entryDy=0;entryPerimeter=0;" parent="1" source="udKlv2XS0zDgbgj1gm9A-58" target="udKlv2XS0zDgbgj1gm9A-2" edge="1">
          <mxGeometry width="50" height="50" relative="1" as="geometry">
            <mxPoint x="220" y="530" as="sourcePoint" />
            <mxPoint x="60" y="450" as="targetPoint" />
            <Array as="points">
              <mxPoint x="190" y="575" />
              <mxPoint x="190" y="490" />
              <mxPoint x="50" y="490" />
              <mxPoint x="50" y="407" />
            </Array>
          </mxGeometry>
        </mxCell>
        <mxCell id="udKlv2XS0zDgbgj1gm9A-71" value="" style="endArrow=none;html=1;rounded=0;exitX=0.999;exitY=0.091;exitDx=0;exitDy=0;exitPerimeter=0;entryX=0;entryY=0.75;entryDx=0;entryDy=0;" parent="1" target="udKlv2XS0zDgbgj1gm9A-16" edge="1">
          <mxGeometry width="50" height="50" relative="1" as="geometry">
            <mxPoint x="490" y="584.5" as="sourcePoint" />
            <mxPoint x="450" y="416.5" as="targetPoint" />
            <Array as="points">
              <mxPoint x="560" y="584.5" />
              <mxPoint x="560" y="499.5" />
              <mxPoint x="420" y="499.5" />
              <mxPoint x="420" y="277" />
            </Array>
          </mxGeometry>
        </mxCell>
        <mxCell id="udKlv2XS0zDgbgj1gm9A-72" value="" style="endArrow=none;html=1;rounded=0;exitX=0.999;exitY=0.091;exitDx=0;exitDy=0;exitPerimeter=0;entryX=0;entryY=0.75;entryDx=0;entryDy=0;" parent="1" target="udKlv2XS0zDgbgj1gm9A-20" edge="1">
          <mxGeometry width="50" height="50" relative="1" as="geometry">
            <mxPoint x="680" y="585" as="sourcePoint" />
            <mxPoint x="640" y="417" as="targetPoint" />
            <Array as="points">
              <mxPoint x="750" y="585" />
              <mxPoint x="750" y="500" />
              <mxPoint x="630" y="500" />
              <mxPoint x="630" y="460" />
              <mxPoint x="630" y="357" />
            </Array>
          </mxGeometry>
        </mxCell>
        <mxCell id="udKlv2XS0zDgbgj1gm9A-73" value="" style="endArrow=none;html=1;rounded=0;exitX=1;exitY=0.25;exitDx=0;exitDy=0;entryX=0;entryY=0.75;entryDx=0;entryDy=0;" parent="1" source="udKlv2XS0zDgbgj1gm9A-61" target="udKlv2XS0zDgbgj1gm9A-23" edge="1">
          <mxGeometry width="50" height="50" relative="1" as="geometry">
            <mxPoint x="900" y="530" as="sourcePoint" />
            <mxPoint x="860" y="362" as="targetPoint" />
            <Array as="points">
              <mxPoint x="940" y="586" />
              <mxPoint x="940" y="530" />
              <mxPoint x="940" y="445" />
              <mxPoint x="840" y="445" />
              <mxPoint x="840" y="400" />
              <mxPoint x="840" y="357" />
            </Array>
          </mxGeometry>
        </mxCell>
        <mxCell id="4ckOZmKWnFuh3tHlZ79d-1" value="d_valid" style="text;html=1;align=center;verticalAlign=middle;resizable=0;points=[];autosize=1;strokeColor=none;fillColor=none;" vertex="1" parent="1">
          <mxGeometry x="110" y="398" width="60" height="30" as="geometry" />
        </mxCell>
        <mxCell id="4ckOZmKWnFuh3tHlZ79d-2" value="c_valid" style="text;html=1;align=center;verticalAlign=middle;resizable=0;points=[];autosize=1;strokeColor=none;fillColor=none;" vertex="1" parent="1">
          <mxGeometry x="110" y="288" width="60" height="30" as="geometry" />
        </mxCell>
        <mxCell id="4ckOZmKWnFuh3tHlZ79d-3" value="b_valid" style="text;html=1;align=center;verticalAlign=middle;resizable=0;points=[];autosize=1;strokeColor=none;fillColor=none;" vertex="1" parent="1">
          <mxGeometry x="110" y="218" width="60" height="30" as="geometry" />
        </mxCell>
        <mxCell id="4ckOZmKWnFuh3tHlZ79d-4" value="a_valid" style="text;html=1;align=center;verticalAlign=middle;resizable=0;points=[];autosize=1;strokeColor=none;fillColor=none;" vertex="1" parent="1">
          <mxGeometry x="110" y="178" width="60" height="30" as="geometry" />
        </mxCell>
      </root>
    </mxGraphModel>
  </diagram>
</mxfile>
